<svg xmlns="http://www.w3.org/2000/svg" width="40" height="40"><g fill="none" fill-rule="evenodd"><path fill="#F50" d="M18.021 6.984l-6.685 6.565v19.194L4.273 29.55c-1.1-.497-1.58-1.777-1.067-2.844l8.392-17.454 6.423-2.267zm8.592-2.36l9.473 9.186-.001 19.259c0 1.177-.993 2.14-2.207 2.14H16.226c-1.213 0-2.206-.963-2.206-2.14v-19.26l9.473-9.185a2.263 2.263 0 013.12 0zm-1.56 4.11c.766.001 1.385-.6 1.385-1.343 0-.742-.62-1.344-1.385-1.344s-1.386.601-1.386 1.344c0 .742.62 1.344 1.386 1.344z"/><path fill="#FFF" d="M22.34 28.125V13.806h-4.09v18.41h12.272v-4.091h-8.181"/></g></svg>